#!OML:ASF I:\golf\golf\golf 2\Subject 1\2002-09-07\Subject1.ASF
:FULLY-SPECIFIED
:DEGREES
230
root -7.49858 17.8562 3.05244 7.89397 44.8008 -9.34273
lowerback 3.6097 -10.2986 -11.5947
upperback 0.404584 -14.0809 -1.53509
thorax 0.783823 -7.0306 4.75348
lowerneck -6.30391 21.1211 1.99363
upperneck 11.0572 31.2683 -17.9306
head 7.69873 14 -2.60927
rclavicle 4.13472e-014 -4.45278e-014
rhumerus 23.2927 -25.6948 -50.791
rradius 108.274
rwrist 11.6527
rhand -62.8849 73.0879
rfingers 7.12502
rthumb -34.8938 46.5071
lclavicle 4.13472e-014 -4.45278e-014
lhumerus 111.292 -41.0497 46.0114
lradius 36.613
lwrist -20.2736
lhand 137.939 167.896
lfingers 7.12502
lthumb -194.954 197.336
rfemur -34.7397 19.7027 20.7218
rtibia 31.8234
rfoot -8.53287 19.8751
rtoes 22.8288
lfemur -2.5824 11.4972 0.658231
ltibia 21.3407
lfoot -8.46851 24.4048
ltoes -17.7885
231
root -7.49643 17.8803 3.03011 7.98373 45.037 -9.40439
lowerback 3.6675 -10.1764 -11.4172
upperback 0.432816 -13.9192 -1.56519
thorax 0.706395 -6.94696 4.65799
lowerneck -6.15118 20.9302 2.46319
upperneck 11.1853 31.0185 -18.0611
head 7.78363 13.8896 -2.73201
rclavicle -9.78021e-014 1.59028e-014
rhumerus 22.982 -25.849 -50.7018
rradius 108.152
rwrist 10.8377
rhand -62.8518 72.9052
rfingers 7.12502
rthumb -34.8623 46.3171
lclavicle -9.78021e-014 1.59028e-014
lhumerus 111.512 -41.2995 45.7403
lradius 36.6014
lwrist -19.1491
lhand 138.698 167.735
lfingers 7.12502
lthumb -194.222 197.228
rfemur -34.8005 19.7016 20.5854
rtibia 31.5588
rfoot -8.36932 19.5148
rtoes 22.4049
lfemur -3.27248 11.8912 0.621158
ltibia 21.5646
lfoot -6.44065 24.7832
ltoes -22.3904
232
root -7.49714 17.8823 3.00419 8.1097 45.267 -9.33067
lowerback 3.77149 -10.0391 -11.3313
upperback 0.490529 -13.7423 -1.68004
thorax 0.63331 -6.85514 4.52817
lowerneck -6.04243 20.7661 3.00812
upperneck 11.3778 30.8033 -18.1227
head 7.89867 13.7941 -2.83183
rclavicle 1.82882e-014 2.22639e-014
rhumerus 22.6141 -25.9918 -50.7525
rradius 107.964
rwrist 10.2849
rhand -63.173 72.9679
rfingers 7.12502
rthumb -35.1671 46.451
lclavicle 1.82882e-014 2.22639e-014
lhumerus 111.612 -41.6522 45.5899
lradius 36.5518
lwrist -19.3209
lhand 139.487 168.26
lfingers 7.12502
lthumb -193.462 197.805
rfemur -34.8467 19.4473 20.439
rtibia 31.3462
rfoot -8.2027 19.4939
rtoes 22.1971
lfemur -3.69484 12.2715 0.500209
ltibia 21.7373
lfoot -5.63257 24.5983
ltoes -24.0692
233
root -7.49899 17.8782 2.97595 8.23933 45.4918 -9.20413
lowerback 3.87564 -10.0118 -11.3657
upperback 0.603436 -13.7119 -1.65199
thorax 0.705368 -6.84824 4.58058
lowerneck -6.23132 20.7893 2.88824
upperneck 11.4691 30.8519 -18.033
head 7.93229 13.7993 -2.76517
rclavicle -2.03158e-013 -3.18055e-015
rhumerus 22.85 -25.8752 -51.0523
rradius 107.7
rwrist 9.83171
rhand -63.3369 71.9179
rfingers 7.12502
rthumb -35.3224 45.4377
lclavicle -2.03158e-013 -3.18055e-015
lhumerus 111.373 -41.7114 45.8893
lradius 36.4065
lwrist -19.8249
lhand 140.436 168.877
lfingers 7.12502
lthumb -192.548 198.481
rfemur -34.916 19.0556 20.3091
rtibia 31.2457
rfoot -8.08921 19.606
rtoes 21.95
lfemur -3.89781 12.3684 0.34444
ltibia 21.766
lfoot -5.77807 24.3088
ltoes -23.7896
234
root -7.49886 17.8825 2.94711 8.32506 45.721 -9.17071
lowerback 3.94531 -10.0228 -11.3647
upperback 0.730126 -13.7271 -1.50944
thorax 0.838674 -6.87032 4.71776
lowerneck -6.44202 20.8563 2.45478
upperneck 11.3873 30.9523 -17.9775
head 7.87673 13.8308 -2.678
rclavicle 8.50798e-014 0
rhumerus 23.2733 -25.7221 -51.2538
rradius 107.499
rwrist 8.84322
rhand -62.9704 69.8437
rfingers 7.12502
rthumb -34.9748 43.2818
lclavicle 8.50798e-014 0
lhumerus 111.276 -41.4407 45.8255
lradius 36.2839
lwrist -19.1284
lhand 140.65 169.081
lfingers 7.12502
lthumb -192.342 198.697
rfemur -35.0402 18.7229 20.2242
rtibia 31.2534
rfoot -8.00862 19.579
rtoes 21.7135
lfemur -4.06908 12.3374 0.261512
ltibia 21.6242
lfoot -5.67823 24.1529
ltoes -24.3429
235
root -7.49718 17.8828 2.9153 8.40267 45.9893 -9.24145
lowerback 3.98431 -10.0455 -11.2725
upperback 0.82623 -13.7545 -1.31323
thorax 0.950921 -6.89759 4.86115
lowerneck -7.02168 20.9272 1.99073
upperneck 11.7455 31.1468 -17.7247
head 7.9998 13.8525 -2.46243
rclavicle 2.70347e-014 -2.54444e-014
rhumerus 23.6196 -25.4133 -51.4597
rradius 107.365
rwrist 7.38946
rhand -62.2115 69.2199
rfingers 7.12502
rthumb -34.2546 42.493
lclavicle 2.70347e-014 -2.54444e-014
lhumerus 111.054 -41.2065 45.9047
lradius 36.1909
lwrist -18.3294
lhand 140.859 169.056
lfingers 7.12502
lthumb -192.14 198.684
rfemur -35.2258 18.3155 20.2075
rtibia 31.2343
rfoot -7.84344 19.6053
rtoes 21.673
lfemur -4.31642 12.3565 0.272936
ltibia 21.4632
lfoot -4.99726 23.8679
ltoes -26.8803
236
root -7.49674 17.8851 2.88349 8.53574 46.3196 -9.25925
lowerback 4.0776 -10.0716 -11.1851
upperback 0.852422 -13.7992 -1.13869
thorax 0.958028 -6.92511 5.0045
lowerneck -7.96002 21.0097 1.51693
upperneck 12.6872 31.44 -17.0778
head 8.31532 13.8691 -2.06287
rclavicle -1.59028e-015 -4.77083e-014
rhumerus 23.9182 -24.8691 -51.967
rradius 107.19
rwrist 6.68262
rhand -61.9113 68.9159
rfingers 7.12502
rthumb -33.9694 42.1254
lclavicle -1.59028e-015 -4.77083e-014
lhumerus 110.58 -41.2048 46.402
lradius 36.0074
lwrist -18.0365
lhand 141.433 169.024
lfingers 7.12502
lthumb -191.587 198.683
rfemur -35.4003 17.9304 20.119
rtibia 31.1462
rfoot -7.62917 19.5749
rtoes 21.7175
lfemur -4.64337 12.4344 0.238856
ltibia 21.3692
lfoot -4.33814 23.4869
ltoes -28.7798
